<?xml version="1.0" encoding="utf-8"?>
<!-- Generator: Adobe Illustrator 26.0.2, SVG Export Plug-In . SVG Version: 6.00 Build 0)  -->
<svg version="1.1" id="Layer_1" xmlns="http://www.w3.org/2000/svg" xmlns:xlink="http://www.w3.org/1999/xlink" x="0px" y="0px"
	 viewBox="0 0 800 800" style="enable-background:new 0 0 800 800;" xml:space="preserve">
<style type="text/css">
	.st0{fill:#3E75C3;}
	.st1{fill:#FFFFFF;}
</style>
<desc>Created with Sketch.</desc>
<path class="st0" d="M400,1.3c220.4,0,399.2,179,400,400.2c0-0.5,0-1,0-1.5C800,179.1,620.9,0,400,0S0,179.1,0,400c0,0.5,0,1,0,1.4
	C0.8,180.3,179.6,1.3,400,1.3z"/>
<path class="st1" d="M499.2,764.7c0-13.2,0.5-56.5,0.5-110.2c0-37.5-12.8-62-27.2-74.4c89.1-10,182.6-43.9,182.6-198.2
	c0-43.9-15.4-79.7-41.1-107.8c4.1-10.2,17.8-51-4-106.3c0,0-33.6-10.8-109.9,41.2c-31.9-8.9-66.1-13.3-100.1-13.5
	c-34.1,0.1-68.3,4.6-100.2,13.5c-76.4-52-110-41.2-110-41.2c-21.7,55.3-8,96.1-3.9,106.3c-25.6,28.1-41.2,64-41.2,107.8
	c0,153.9,93.4,188.4,182.2,198.5c-11.4,10.1-21.8,27.7-25.4,53.7c-22.8,10.2-80.7,28-116.4-33.4c0,0-21.1-38.6-61.2-41.4
	c0,0-39-0.5-2.7,24.4c0,0,26.2,12.3,44.4,58.7c0,0,23.4,78.1,134.7,53.8c0.3,33.5,0.6,58.8,0.6,68.3c0,7.9-4,16.7-14,19.3
	C322.7,794.3,360.7,800,400,800c39.2,0,77-5.6,112.8-16.1C503,781.2,499.2,772.5,499.2,764.7z"/>
<path class="st0" d="M800,401.5C799.2,180.3,620.4,1.3,400,1.3C179.6,1.3,0.8,180.3,0,401.4c0.6,181,121.5,333.7,286.9,382.3
	c10.1-2.6,14-11.4,14-19.3c0-9.5-0.3-34.8-0.6-68.3c-111.3,24.3-134.7-53.8-134.7-53.8c-18.2-46.4-44.4-58.7-44.4-58.7
	c-36.3-24.9,2.7-24.4,2.7-24.4c40.1,2.8,61.2,41.4,61.2,41.4c35.7,61.4,93.6,43.6,116.4,33.4c3.6-26,14-43.6,25.4-53.7
	c-88.8-10.1-182.2-44.6-182.2-198.5c0-43.8,15.6-79.7,41.2-107.8c-4.1-10.2-17.8-51,3.9-106.3c0,0,33.6-10.8,110,41.2
	c31.9-8.9,66.1-13.4,100.2-13.5c34,0.2,68.2,4.6,100.1,13.5c76.3-52,109.9-41.2,109.9-41.2c21.8,55.3,8.1,96.1,4,106.3
	c25.7,28.1,41.1,63.9,41.1,107.8c0,154.3-93.5,188.2-182.6,198.2c14.4,12.4,27.2,36.9,27.2,74.4c0,53.7-0.5,97-0.5,110.2
	c0,7.8,3.8,16.5,13.6,19.2C678.3,735.3,799.3,582.6,800,401.5z"/>
</svg>
