<?xml version="1.0" encoding="utf-8"?>
<!-- Generator: Adobe Illustrator 26.0.2, SVG Export Plug-In . SVG Version: 6.00 Build 0)  -->
<svg version="1.1" id="Layer_1" xmlns="http://www.w3.org/2000/svg" xmlns:xlink="http://www.w3.org/1999/xlink" x="0px" y="0px"
	 viewBox="0 0 800 800" style="enable-background:new 0 0 800 800;" xml:space="preserve">
<style type="text/css">
	.st0{fill:#FFFFFF;}
</style>
<path class="st0" d="M715,799.1H85c-46.5,0-84.1-37.7-84.1-84.1V85C0.9,38.6,38.6,0.9,85,0.9H715c46.5,0,84.1,37.7,84.1,84.1V715
	C799.1,761.4,761.4,799.1,715,799.1z"/>
<g>
	<path d="M262.3,219.6c98.4,0,178.2,80.4,178.2,179.5s-79.8,179.5-178.2,179.5S84,498.2,84,399.1S163.8,219.6,262.3,219.6z
		 M546.9,230.1c49.2,0,89.1,75.6,89.1,168.9h0c0,93.3-39.9,168.9-89.1,168.9s-89.1-75.7-89.1-168.9S497.7,230.1,546.9,230.1z
		 M684.6,247.7c17.3,0,31.3,67.8,31.3,151.4c0,83.6-14,151.4-31.3,151.4s-31.3-67.8-31.3-151.4S667.3,247.7,684.6,247.7z"/>
</g>
</svg>
