<?xml version="1.0" encoding="utf-8"?>
<!-- Generator: Adobe Illustrator 26.0.2, SVG Export Plug-In . SVG Version: 6.00 Build 0)  -->
<svg version="1.1" id="Layer_1" xmlns="http://www.w3.org/2000/svg" xmlns:xlink="http://www.w3.org/1999/xlink" x="0px" y="0px"
	 viewBox="0 0 800 800" style="enable-background:new 0 0 800 800;" xml:space="preserve">
<style type="text/css">
	.st0{fill:#FFFFFF;}
	.st1{fill:#7099A6;}
	.st2{fill:#EB912C;}
	.st3{fill:#59879B;}
	.st4{fill:#E8762C;}
	.st5{fill:#5B6591;}
	.st6{fill:#C72035;}
	.st7{fill:#1F447E;}
</style>
<path class="st0" d="M707,797H93c-49.7,0-90-40.3-90-90V93C3,43.3,43.3,3,93,3h614c49.7,0,90,40.3,90,90v614
	C797,756.7,756.7,797,707,797z"/>
<g>
	<g>
		<polygon class="st1" points="145.5,338 145.5,344.4 134.1,344.4 134.1,348.5 145.5,348.5 145.5,361.1 149.9,361.1 149.9,348.5 
			161.5,348.5 161.5,344.4 149.9,344.4 149.9,331.7 145.5,331.7 		"/>
		<polygon class="st2" points="108.4,354.1 108.4,363.3 91.3,363.3 91.3,369.1 108.4,369.1 108.4,387.8 114.8,387.8 114.8,369.1 
			132.2,369.1 132.2,363.3 114.8,363.3 114.8,344.9 108.4,344.9 		"/>
		<polygon class="st3" points="180.3,354.1 180.3,363.3 163.2,363.3 163.2,369.4 180.3,369.4 180.3,387.8 187,387.8 187,369.4 
			204.1,369.4 204.1,363.3 187,363.3 187,344.9 180.3,344.9 		"/>
		<polygon class="st4" points="143.8,385.4 143.8,395.7 124.7,395.7 124.7,403.4 143.8,403.4 143.8,424 151.6,424 151.6,403.4 
			170.6,403.4 170.6,395.7 151.6,395.7 151.6,375.1 143.8,375.1 		"/>
		<polygon class="st5" points="200,390.6 200,397.1 188.3,397.1 188.3,402.3 200,402.3 200,415.3 205.8,415.3 205.8,402.3 
			217.4,402.3 217.4,397.1 205.8,397.1 205.8,384.2 200,384.2 		"/>
		<polygon class="st1" points="89.3,391.2 89.3,397.4 78,397.4 78,401.8 89.3,401.8 89.3,414.1 93.8,414.1 93.8,401.8 105.4,401.4 
			105.4,397.4 93.8,397.4 93.8,385 89.3,385 		"/>
		<polygon class="st6" points="108.4,420.3 108.4,429.5 91.3,429.5 91.3,435.6 108.4,435.6 108.4,454 115,454 115,435.6 
			132.2,435.6 132.2,429.5 115,429.5 115,411.1 108.4,411.1 		"/>
		<polygon class="st7" points="180.3,420.3 180.3,429.5 163.2,429.5 163.2,435.3 180.3,435.3 180.3,454 187,454 187,435.3 
			204.1,435.3 204.1,429.5 187,429.5 187,411.1 180.3,411.1 		"/>
		<polygon class="st5" points="144.9,443.7 144.9,450.1 133.3,450.1 133.3,455.4 144.9,455.4 144.9,468.3 150.7,468.3 150.7,455.4 
			162.3,455.4 162.3,450.1 150.7,450.1 150.7,437.2 144.9,437.2 		"/>
	</g>
	<path class="st7" d="M502.2,359.2v78.3h-8.8v-78.3H502.2z M282.6,370.2v25h23.8v8.2h-23.8v26.9h-8.8v-26.9H250v-8.2h23.8v-25H282.6
		z M559.2,387.4c1.6,0.1,3.6,0.3,4.6,0.6c0.9,0.2,2.4,0.8,3.3,1.2c0.9,0.4,2.4,1.3,3.3,2c0.9,0.7,2.2,2,2.9,2.9s1.6,2.5,2.1,3.5
		c0.5,1.1,1.2,2.9,1.5,4.1c0.3,1.2,0.7,3.7,1,8.7h-30.6l0.2,1c0.1,0.6,0.4,1.8,0.7,2.7c0.3,0.9,1,2.3,1.6,3.1
		c0.6,0.8,1.4,1.8,1.9,2.1c0.5,0.3,1.4,0.9,2.1,1.3c0.7,0.3,1.9,0.8,2.6,1c0.8,0.2,2.8,0.4,4.7,0.4c1.8,0,4.5-0.2,5.8-0.4
		c1.4-0.2,3.3-0.7,4.3-1c1-0.3,2.3-0.8,2.8-1.1c0.6-0.3,1.2-0.5,1.3-0.5c0.2,0,0.3,1.4,0.3,7.4l0,0.8l0,0l-1.5,0.7
		c-0.9,0.4-2.6,1-3.9,1.4c-1.3,0.4-3.8,0.8-5.5,1c-2.3,0.2-3.8,0.2-6.2,0c-1.8-0.2-4.3-0.6-5.7-1c-1.4-0.4-3.3-1.2-4.4-1.7
		c-1.1-0.6-2.8-1.9-4-2.9c-1.2-1.1-2.6-2.8-3.3-3.8s-1.5-2.9-1.9-4c-0.4-1.1-0.9-3.1-1-4.4c-0.2-1.4-0.3-3.4-0.2-4.9
		c0.1-1.4,0.4-3.6,0.7-4.8c0.3-1.2,1.1-3.2,1.6-4.4c0.6-1.2,1.7-2.9,2.4-3.8c0.7-0.9,2.2-2.3,3.3-3.1c1.1-0.8,2.8-1.8,3.9-2.3
		c1.1-0.5,3-1,4.1-1.2C555.6,387.4,557.3,387.3,559.2,387.4z M651,386.9v13.8c0,7.6-0.1,16.7-0.4,26.6l-2.2,0.7
		c-1.2,0.4-3.7,0.9-5.5,1.2c-2.3,0.4-4.5,0.6-7.4,0.6c-2.3,0-5-0.1-6-0.3c-1-0.2-2.9-0.7-4.3-1.1c-1.5-0.5-3.4-1.4-4.6-2.1
		c-1.2-0.7-2.8-2.1-3.6-3c-0.8-0.9-1.9-2.4-2.5-3.4c-0.5-1-1.3-2.8-1.6-4c-0.5-1.7-0.7-3.1-0.8-6.2c-0.1-2.5,0-4.7,0.2-5.9
		c0.2-1.1,0.6-2.8,1-4c0.4-1.1,1.2-2.9,1.9-4c0.6-1.1,2-2.7,3.1-3.7c1.2-1.1,2.7-2.2,4-2.8c1.1-0.5,2.8-1.2,3.7-1.5
		c0.9-0.2,3.1-0.5,5-0.6c2.4-0.1,3.9,0,5.4,0.3c1.2,0.3,2.9,0.8,3.9,1.3c1,0.4,1.8,0.8,1.9,0.8c0,0,0.1-0.5,0.1-1.2l0-1.6H651z
		 M377.5,386.9l0,17.2l0,0l0,1.8c0,8.1-0.1,16-0.4,21.4l-2.2,0.7c-1.2,0.4-3.8,0.9-5.7,1.3c-2.9,0.5-4.2,0.5-8.4,0.4
		c-3.9-0.1-5.5-0.3-7.2-0.7c-1.2-0.3-3.3-1.1-4.7-1.8c-1.4-0.7-3.2-1.9-4.1-2.7c-0.9-0.8-2.2-2.3-2.8-3.2c-0.6-1-1.5-2.5-1.9-3.4
		s-0.9-2.7-1.2-4c-0.4-1.9-0.4-3.2-0.3-6.5c0.1-3.1,0.3-4.6,0.7-6.2c0.3-1.1,1.1-3,1.7-4.1c0.6-1.1,1.8-2.9,2.7-3.8
		c0.9-1,2.4-2.3,3.3-2.9c0.9-0.6,2.4-1.4,3.3-1.8c0.9-0.4,2.6-0.9,3.7-1.1c1.1-0.2,3.2-0.4,4.6-0.4c1.4,0,3.4,0.2,4.5,0.4
		c1.1,0.2,2.7,0.8,3.7,1.3c1,0.4,1.8,0.8,1.9,0.8c0,0,0.1-0.6,0.1-1.4v-1.4H377.5z M429.2,367.4l0,13.1c0,8.1,0.1,8.6,0.5,8.5
		c0.3-0.1,1.6-0.5,3-0.9c1.6-0.4,3.6-0.7,5.7-0.9c2.4-0.1,3.8,0,5.5,0.3c1.5,0.3,3.3,0.9,4.8,1.7c1.4,0.7,3.2,1.8,4,2.6
		c0.8,0.7,2.1,2.2,2.9,3.4c0.8,1.1,1.7,2.9,2.1,4c0.4,1.1,1,3.1,1.2,4.5c0.3,1.9,0.4,3.5,0.3,6c-0.1,1.9-0.4,4.2-0.6,5.2
		c-0.2,1-0.9,2.7-1.3,3.7c-0.5,1.1-1.5,2.7-2.2,3.6c-0.7,0.9-2,2.2-3,3c-1,0.7-2.7,1.8-3.8,2.3c-1.1,0.5-3,1.2-4.1,1.5
		c-1.8,0.5-2.9,0.6-8,0.6c-4.8,0-6.4-0.1-8.3-0.5c-1.3-0.3-3.4-0.8-4.7-1.2c-1.3-0.4-2.4-0.8-2.5-0.9c-0.1-0.1-0.2-13.6-0.3-29.9
		l-0.1-29.8H429.2z M694.4,388l0,13.8l0,1.1c0,0.2,0,0.3,0,0.5l0,1.9c0,8.6,0.1,10.2,0.4,11.5l0,0.1c0,0.1,0.1,0.2,0.1,0.4
		c0.3,1,1,2.2,1.5,2.9c0.5,0.6,1.5,1.3,2.3,1.7c0.7,0.4,2.2,0.8,3.2,0.9c1.1,0.2,2.6,0.2,3.6,0c1-0.1,2.4-0.5,3.2-0.9
		c0.8-0.4,1.8-1.1,2.3-1.7c0.5-0.6,1.2-1.8,1.5-2.9c0-0.1,0.1-0.3,0.1-0.4l0-0.1c0.3-1.4,0.4-3.8,0.4-19.1l0-1.2c0-0.2,0-0.4,0-0.6
		l0-3.4c0-0.2,0-0.5,0-0.7l0-3.8l0,0h9l-0.1,14.9c0,12.4,0,14.6-0.4,16l0,0.1c0,0.1,0,0.1-0.1,0.2l0,0.1l0,0l0,0.1l0,0
		c-0.3,0.9-1,2.3-1.4,3c-0.5,0.8-1.3,1.8-1.9,2.4c-0.6,0.6-1.8,1.5-2.7,2s-2.7,1.3-3.9,1.7c-1.4,0.4-3.2,0.8-5,0.9
		c-1.5,0.1-4,0.1-5.5,0c-1.7-0.1-3.6-0.4-5-0.9c-1.2-0.4-3-1.1-3.9-1.7c-0.9-0.5-2.1-1.4-2.7-2c-0.6-0.6-1.4-1.6-1.9-2.4
		c-0.5-0.7-1.1-2.1-1.4-3l0-0.1l0,0l0-0.1c0-0.1-0.1-0.2-0.1-0.4l0-0.1c-0.3-1.4-0.4-3.9-0.4-15.9l-0.1-14.9H694.4z M633.3,395.5
		c-1,0-2.5,0.2-3.3,0.4c-0.9,0.2-2.1,0.7-2.9,1.2c-0.7,0.4-1.8,1.3-2.4,1.9c-0.6,0.6-1.4,1.8-1.8,2.6c-0.4,0.7-0.9,2.1-1.1,3.1
		c-0.2,0.9-0.4,2.8-0.4,4s0.2,3.1,0.4,4c0.2,1,0.7,2.2,1,2.9c0.3,0.6,1.2,1.8,1.9,2.5c0.7,0.7,1.8,1.6,2.5,2
		c0.7,0.4,1.9,0.9,2.8,1.1c1,0.3,2.5,0.4,4.4,0.4c1.5,0,3.7-0.1,4.8-0.3c1.1-0.2,2.2-0.4,2.3-0.5c0.2-0.1,0.4-3.5,0.4-11.4l0.1-11.3
		c-2.8-1.4-4.3-2-5.3-2.2C635.8,395.6,634.3,395.5,633.3,395.5z M356.5,395.9c-0.8,0.2-2.1,0.7-2.9,1.2c-0.7,0.4-1.8,1.3-2.4,1.9
		c-0.6,0.6-1.4,1.8-1.8,2.6c-0.4,0.7-0.9,2.1-1.1,3.1c-0.2,0.9-0.4,2.6-0.4,3.8s0.1,2.8,0.3,3.7c0.2,0.9,0.6,2.4,1.1,3.3
		c0.5,1.1,1.3,2.2,2.4,3.2c1,1,2.2,1.8,3.3,2.2c1.3,0.5,2.3,0.7,5,0.8c1.9,0.1,4.3,0,5.5-0.2c1.2-0.2,2.3-0.4,2.5-0.5
		c0.2-0.1,0.4-3.7,0.5-11.4l0.2-11.2c-2.3-1.2-3.5-1.8-4.3-2.1c-0.7-0.3-2.5-0.5-3.9-0.6C358.8,395.5,357.5,395.6,356.5,395.9z
		 M437.7,395.5c-1.1,0-2.4,0.2-3,0.3c-0.6,0.1-2,0.6-3.2,1l-2.1,0.7v22.9c4.3,1.1,5.3,1.2,8.1,1.1c2.8-0.1,3.8-0.2,5.1-0.7
		c0.9-0.4,2.2-1,2.8-1.5c0.6-0.5,1.5-1.3,2-1.9c0.5-0.6,1.1-1.8,1.5-2.7c0.4-0.9,0.8-2.6,0.9-3.8c0.2-1.6,0.2-2.8,0-4.5
		c-0.2-1.6-0.6-3-1.3-4.3c-0.5-1.1-1.4-2.5-2-3c-0.6-0.6-1.6-1.4-2.3-1.8c-0.7-0.4-2-0.9-2.9-1.2
		C440.3,395.6,438.7,395.5,437.7,395.5z M556.1,395.9c-0.8,0.2-2.2,0.8-3,1.3c-0.8,0.5-2,1.4-2.6,2.1c-0.6,0.7-1.4,1.8-1.8,2.6
		s-0.7,1.4-0.7,1.6c0,0.2,3.2,0.3,9,0.3l10.8,0c-0.3-2-0.5-3-0.7-3.6c-0.2-0.5-0.9-1.5-1.5-2.1c-0.7-0.8-1.6-1.4-2.6-1.8
		c-0.9-0.3-2.4-0.6-3.5-0.7C558.4,395.5,557.1,395.6,556.1,395.9z"/>
</g>
</svg>
