<?xml version="1.0" encoding="utf-8"?>
<!-- Generator: Adobe Illustrator 26.0.2, SVG Export Plug-In . SVG Version: 6.00 Build 0)  -->
<svg version="1.1" id="Layer_1" xmlns="http://www.w3.org/2000/svg" xmlns:xlink="http://www.w3.org/1999/xlink" x="0px" y="0px"
	 viewBox="0 0 800 800" style="enable-background:new 0 0 800 800;" xml:space="preserve">
<style type="text/css">
	.st0{fill:#FFFFFF;}
	.st1{fill:#E55B2D;}
	.st2{fill:#ED8E24;}
	.st3{fill:#F8BF3C;}
</style>
<path class="st0" d="M707,797H93c-49.7,0-90-40.3-90-90V93C3,43.3,43.3,3,93,3h614c49.7,0,90,40.3,90,90v614
	C797,756.7,756.7,797,707,797z"/>
<g>
	<path class="st1" d="M443.6,173.6v100.6l174.3,100.6V274.2L443.6,173.6z M95,274.2v100.6l87.1,50.3V324.5L95,274.2z M356.4,324.5
		l-87.1,50.3v301.8l87.1,50.3V525.8l87.1,50.3V475.5l-87.1-50.3V324.5z"/>
	<path class="st2" d="M443.6,173.6L182.2,324.5v100.6l174.3-100.6v100.6l87.1-50.3V173.6z M705,223.9l-87.1,50.3v100.6l87.1-50.3
		V223.9z M530.7,425.1l-87.1,50.3v100.6l87.1-50.3V425.1z M443.6,576.1l-87.1-50.3V727l87.1-50.3V576.1z"/>
	<path class="st3" d="M443.6,73L95,274.2l87.1,50.3l261.4-150.9l174.3,100.6l87.1-50.3L443.6,73z M443.6,374.9l-87.1,50.3l87.1,50.3
		l87.1-50.3L443.6,374.9z"/>
</g>
</svg>
