<?xml version="1.0" encoding="utf-8"?>
<!-- Generator: Adobe Illustrator 26.0.2, SVG Export Plug-In . SVG Version: 6.00 Build 0)  -->
<svg version="1.1" id="Layer_1" xmlns="http://www.w3.org/2000/svg" xmlns:xlink="http://www.w3.org/1999/xlink" x="0px" y="0px"
	 viewBox="0 0 800 800" style="enable-background:new 0 0 800 800;" xml:space="preserve">
<style type="text/css">
	.st0{fill:#FFFFFF;}
	.st1{fill:#FF9900;}
</style>
<path class="st0" d="M707.2,797.2H92.8c-49.7,0-90-40.3-90-90V92.8c0-49.7,40.3-90,90-90h614.4c49.7,0,90,40.3,90,90v614.4
	C797.2,756.9,756.9,797.2,707.2,797.2z"/>
<g>
	<path class="st1" d="M614.6,480.1c23.5-2.9,75.5-9,84.7,2.9c9.2,11.7-10.3,60.9-19.1,82.7c-2.6,6.6,3.1,9.3,9,4.2
		c38.7-32.6,48.8-100.8,40.9-110.7c-7.9-9.7-75.9-18.1-117.3,11C606.4,474.9,607.5,481,614.6,480.1L614.6,480.1z"/>
	<path class="st1" d="M401.2,599.4c90.4,0,195.6-28.4,268-82c11.9-8.8,1.5-22.3-10.6-16.8c-81.2,34.4-169.4,51.2-249.7,51.2
		c-119,0-234.1-32.9-327.4-87.1c-8.1-4.9-14.3,3.5-7.5,9.7C160.3,552.5,274.4,599.4,401.2,599.4L401.2,599.4z"/>
	<path class="st1" d="M67.4,200.6"/>
	<g>
		<path d="M468.1,377.4c0.8-2.9,1.6-5.8,2.4-8.8c11.7-45.2,23.3-90.3,35-135.5c2.6-10,5.1-11.9,15.5-11.9c5.6,0,11.1,0,16.7,0
			c5.9,0,7.7,2.2,6.5,8.2c-2,9.4-5.4,18.4-8.2,27.6c-15.1,48.8-30.4,97.6-45.6,146.4c-0.5,1.6-1,3.2-1.6,4.8
			c-2.4,6.4-5.4,8.6-12.2,8.7c-6.4,0.1-12.8,0.1-19.2,0c-7.3-0.1-10.4-2.5-12.1-9.6c-8.4-34.5-16.7-69-25-103.5
			c-3-12.6-6-25.1-9.2-38.3c-1.4,1.6-1.5,3.1-1.8,4.5c-10.5,44-21,88-31.6,132c-3.3,13.7-5,15-19,15c-4.3,0-8.6,0.1-13,0
			c-7.9-0.2-10.7-2.2-13.2-9.7c-2.9-8.7-5.5-17.5-8.2-26.3c-13-42.8-26-85.5-38.9-128.3c-2.3-7.7-4.7-15.5-6.7-23.3
			c-1.4-5.5,0.6-7.9,6.3-7.9c6.1,0,12.3,0,18.4,0c9.6,0,12.4,2.2,14.9,11.7c2.8,10.8,5.6,21.6,8.3,32.4c9,35.6,18,71.3,27,106.9
			c0.3,1.2,0.7,2.4,1.9,3.6c1.5-6.3,3.1-12.5,4.5-18.8c9.8-41.5,19.5-82.9,29.3-124.4c2.3-9.7,4.6-11.4,14.4-11.4
			c5.3,0,10.6,0,15.9,0c8.6,0.1,11.1,1.9,13.2,10.3c4.3,17.6,8.4,35.2,12.6,52.8c7.1,30.1,14.1,60.2,21.2,90.3
			c0.2,0.9,0.6,1.8,0.8,2.7C467.5,377.4,467.8,377.4,468.1,377.4z"/>
		<path d="M637.3,215.4c14,0.6,29.4,2.7,44,8.7c11.9,4.9,16.8,16.1,12.4,28.4c-1.3,3.6-3.8,4.6-7.3,3.4c-6.6-2.2-12.8-5.5-19.6-7.1
			c-15.9-3.8-31.9-5.2-47.9-1.4c-13.4,3.2-20.2,12-19.8,25.1c0.2,6.9,3.5,12.2,9,16.2c5.6,4.1,11.9,6.7,18.4,8.9
			c14,4.7,28.1,9,42,14.1c12.9,4.8,24.1,12.1,30.9,24.8c10.3,19.3,6.9,44.9-7.6,61.3c-13.5,15.2-31.1,21.8-50.5,24.1
			c-23.7,2.9-46.6-1.2-68.7-10c-11.1-4.4-16.6-18.6-11.5-29.5c1.5-3.1,4.2-3.5,7.1-2.5c5,1.8,9.9,3.8,14.9,5.6
			c19.3,6.6,38.9,9.5,59.1,5.7c4.6-0.9,8.9-2.3,13-4.5c8-4.4,12.9-10.8,13.4-20.2c0.5-9.7-3.3-16.9-11.7-21.9
			c-10.1-5.9-21.5-8.3-32.5-11.9c-11-3.5-22.3-6.3-32.4-12c-19-10.6-29.4-26.6-29.4-48.5c0-20.4,10.6-34.9,27.5-45.3
			C604,218.2,619.5,215.6,637.3,215.4z"/>
		<path d="M267.4,395.6c-1.1-2.6-2.5-5-3.6-7.5c-3.1-6.7-5.2-13.6-5.9-21.2c-1.3-15-0.2-30.1-0.7-45.1c-0.5-17.7,1.1-35.4-1.6-53
			c-4.2-27.2-19.7-44.1-46.7-50.1c-18.2-4-36.5-3.5-54.7-0.2c-11.8,2.1-23.2,5.8-34.1,11c-5.5,2.6-9.1,6.2-8.4,12.9
			c0.3,3.7,0,7.5,0.1,11.3c0.1,5.6,2.4,7.3,7.8,5.6c5.2-1.6,10.2-3.7,15.3-5.5c18.1-6.6,36.6-9.4,55.8-6.4
			c13.2,2,23.3,8.2,27.3,21.8c3.5,11.8,3.3,23.9,3.1,36c0,2.4-1.6,2.1-3.2,1.7c-5.3-1.1-10.6-2.3-16-3.1c-16-2.5-32-4.2-48.1-1.2
			c-16.5,3-31.3,9.4-42.2,22.6c-12.5,15.2-15.3,33-11.9,52c2.1,11.4,6.9,21.4,15.6,29.4c12.7,11.8,28.3,15.8,45.1,15.3
			c23.6-0.6,43.9-9.4,59.9-27c2.7-2.9,3.8-2.7,5.3,0.8c3.1,7,7.1,13.6,12.7,19c4,3.9,7.4,4.4,12,1.4c4.8-3.1,9.5-6.3,14.2-9.6
			C268.4,403.5,269.3,400,267.4,395.6z M220.7,353.5c-1.4,11.6-6.6,20.8-15.9,27.7c-13.4,9.8-28.5,13.3-44.6,10.8
			c-14.6-2.2-22.4-12.6-23.1-28.4c-0.9-19.5,10.1-32.5,29.5-35.5c5.3-0.8,10.5-0.7,15.8-0.8c11.9-0.3,23.5,1.7,35.1,4
			c2.8,0.6,4.1,1.7,4,4.6C221.2,341.9,221.4,347.7,220.7,353.5z"/>
	</g>
</g>
</svg>
