<?xml version="1.0" encoding="utf-8"?>
<!-- Generator: Adobe Illustrator 26.0.2, SVG Export Plug-In . SVG Version: 6.00 Build 0)  -->
<svg version="1.1" id="Layer_1" xmlns="http://www.w3.org/2000/svg" xmlns:xlink="http://www.w3.org/1999/xlink" x="0px" y="0px"
	 viewBox="0 0 512 512" style="enable-background:new 0 0 512 512;" xml:space="preserve">
<style type="text/css">
	.st0{fill:#FFFFFF;}
	.st1{fill:#20BEFF;}
</style>
<path class="st0" d="M76.8,0h358.4C477.6,0,512,34.4,512,76.8v358.4c0,42.4-34.4,76.8-76.8,76.8H76.8C34.4,512,0,477.6,0,435.2V76.8
	C0,34.4,34.4,0,76.8,0z"/>
<path class="st0" d="M446.5,506h-381C32.6,506,6,479.4,6,446.5v-381C6,32.6,32.6,6,65.5,6h381C479.4,6,506,32.6,506,65.5v381
	C506,479.4,479.4,506,446.5,506z"/>
<path class="st1" d="M363,401.5c-0.3,1.7-1.7,2.2-4.4,2.2h-44c-2.8,0-5-1.1-7.2-3.3l-72.3-92.2L215,327.3v71.5c0,3.3-1.7,4.9-5,4.9
	h-33.8c-3.3,0-5-1.6-5-4.9V77c0-3.3,1.7-5,5-5h33.5c3.3,0,5,1.7,5,5v198l86.3-87.3c2.3-2.3,4.6-3.4,6.9-3.4H353c2,0,3.3,0.8,3.9,2.4
	c0.7,2.2,0.6,3.3-0.5,4.4L264,280.5C363,396,363,401.5,363,401.5"/>
</svg>
