<?xml version="1.0" encoding="utf-8"?>
<!-- Generator: Adobe Illustrator 26.0.2, SVG Export Plug-In . SVG Version: 6.00 Build 0)  -->
<svg version="1.1" id="Layer_1" xmlns="http://www.w3.org/2000/svg" xmlns:xlink="http://www.w3.org/1999/xlink" x="0px" y="0px"
	 viewBox="0 0 800 800" style="enable-background:new 0 0 800 800;" xml:space="preserve">
<style type="text/css">
	.st0{fill:#006699;}
	.st1{fill:#FFFFFF;}
</style>
<g>
	<path class="st0" d="M19,73.6C19,43.5,44.2,19,75.3,19h649.4c31.1,0,56.3,24.5,56.3,54.6v652.8c0,30.1-25.2,54.6-56.3,54.6H75.3
		C44.2,781,19,756.6,19,726.4V73.6L19,73.6z"/>
	<path class="st1" d="M250.6,656.7V313.6h-114v343.1H250.6L250.6,656.7z M193.6,266.8c39.8,0,64.5-26.3,64.5-59.3
		c-0.7-33.7-24.8-59.3-63.7-59.3c-39,0-64.5,25.6-64.5,59.3c0,32.9,24.7,59.3,63,59.3L193.6,266.8L193.6,266.8z M313.7,656.7h114
		V465.1c0-10.2,0.7-20.5,3.8-27.8c8.2-20.5,27-41.7,58.5-41.7c41.2,0,57.8,31.5,57.8,77.6v183.5h114V460
		c0-105.4-56.2-154.4-131.3-154.4c-61.5,0-88.5,34.4-103.5,57.8h0.8v-49.7h-114C315.2,345.8,313.7,656.7,313.7,656.7L313.7,656.7z"
		/>
</g>
</svg>
