<?xml version="1.0" encoding="utf-8"?>
<!-- Generator: Adobe Illustrator 26.0.2, SVG Export Plug-In . SVG Version: 6.00 Build 0)  -->
<svg version="1.1" id="Layer_1" xmlns="http://www.w3.org/2000/svg" xmlns:xlink="http://www.w3.org/1999/xlink" x="0px" y="0px"
	 viewBox="0 0 800 800" style="enable-background:new 0 0 800 800;" xml:space="preserve">
<style type="text/css">
	.st0{fill:#FFFFFF;}
	.st1{fill:none;}
	.st2{fill:#5D87A1;}
	.st3{fill:#F8981D;}
</style>
<path class="st0" d="M710,800H90c-49.7,0-90-40.3-90-90V90C0,40.3,40.3,0,90,0h620c49.7,0,90,40.3,90,90v620
	C800,759.7,759.7,800,710,800z"/>
<path class="st1" d="M0,122.8h800v554.5H0V122.8z"/>
<path class="st2" d="M244.9,570.6h-21.7c-0.8-36.6-2.9-70.9-6.3-103.1h-0.2l-33,103.1h-16.5l-32.8-103.1h-0.2
	c-2.4,30.9-4,65.3-4.6,103.1h-19.7c1.3-46,4.5-89.1,9.6-129.4h26.8l31.2,95.1h0.2l31.4-95.1h25.7
	C240.5,488.3,243.9,531.5,244.9,570.6 M338.8,475.1c-8.8,47.9-20.5,82.6-34.9,104.3c-11.2,16.7-23.6,25.1-37,25.1
	c-3.6,0-8-1.1-13.2-3.2v-11.5c2.6,0.4,5.6,0.6,9,0.6c6.3,0,11.3-1.7,15.2-5.2c4.6-4.2,6.9-8.9,6.9-14.2c0-3.6-1.8-10.9-5.4-22
	l-23.8-73.8h21.3l17.1,55.2c3.8,12.5,5.4,21.3,4.8,26.3c9.3-24.9,15.8-52.1,19.6-81.5L338.8,475.1L338.8,475.1L338.8,475.1z"/>
<path class="st3" d="M627.1,570.6h-61.5V441.2h20.7v113.5h40.8V570.6z M549.5,573.7L525.7,562c2.1-1.7,4.1-3.6,5.9-5.8
	c10.1-11.9,15.2-29.4,15.2-52.7c0-42.8-16.8-64.2-50.4-64.2c-16.5,0-29.3,5.4-38.5,16.3c-10.1,11.9-15.1,29.4-15.1,52.5
	c0,22.7,4.5,39.4,13.4,50c8.2,9.6,20.5,14.4,37,14.4c6.2,0,11.8-0.8,16.9-2.3l31,18L549.5,573.7z M472.4,544.7
	c-5.2-8.4-7.9-22-7.9-40.6c0-32.6,9.9-48.9,29.7-48.9c10.4,0,18,3.9,22.8,11.7c5.2,8.4,7.9,21.9,7.9,40.3c0,32.8-9.9,49.3-29.7,49.3
	C484.9,556.4,477.3,552.5,472.4,544.7 M433.7,534.7c0,11-4,20-12.1,27c-8.1,7-18.9,10.5-32.4,10.5c-12.7,0-24.9-4-36.8-12.1
	l5.6-11.1c10.2,5.1,19.5,7.7,27.8,7.7c7.8,0,13.9-1.7,18.3-5.2c4.4-3.4,7-8.3,7-14.4c0-7.7-5.4-14.3-15.2-19.8
	c-9.1-5-27.2-15.4-27.2-15.4c-9.8-7.2-14.8-14.9-14.8-27.5c0-10.5,3.7-19,11-25.4c7.4-6.5,16.8-9.7,28.5-9.7c12,0,22.9,3.2,32.8,9.6
	l-5,11.1c-8.4-3.6-16.7-5.4-24.9-5.4c-6.6,0-11.8,1.6-15.3,4.8c-3.6,3.2-5.8,7.3-5.8,12.3c0,7.7,5.5,14.3,15.6,19.9
	c9.2,5,27.8,15.6,27.8,15.6C428.6,514.5,433.7,522.1,433.7,534.7"/>
<path class="st2" d="M653.1,397.8c-12.5-0.3-22.2,0.9-30.3,4.4c-2.3,0.9-6.1,0.9-6.4,3.9c1.3,1.3,1.4,3.3,2.5,5
	c1.9,3.1,5.1,7.3,8.1,9.5c3.3,2.5,6.6,5,10,7.2c6.1,3.8,13,6,18.9,9.7c3.5,2.2,6.9,5,10.3,7.3c1.7,1.3,2.8,3.3,5,4.1v-0.5
	c-1.1-1.4-1.4-3.4-2.5-5l-4.7-4.5c-4.5-6.1-10.2-11.4-16.3-15.8c-5-3.4-16-8.1-18-13.9l-0.3-0.3c3.4-0.3,7.5-1.6,10.8-2.5
	c5.3-1.4,10.2-1.1,15.6-2.5c2.5-0.6,5-1.4,7.5-2.2v-1.4c-2.8-2.8-4.8-6.6-7.8-9.2c-8-6.9-16.7-13.6-25.8-19.2
	c-4.9-3.1-11.1-5.2-16.3-7.8c-1.9-0.9-5-1.4-6.1-3c-2.8-3.4-4.4-8-6.4-12c-4.5-8.6-8.9-18.1-12.8-27.2c-2.8-6.1-4.5-12.2-8-17.8
	c-16.1-26.6-33.6-42.7-60.5-58.5c-5.8-3.3-12.7-4.7-20-6.4l-11.7-0.6c-2.5-1.1-5-4.1-7.2-5.5c-8.9-5.6-31.9-17.8-38.5-1.7
	c-4.2,10.2,6.3,20.2,9.9,25.3c2.7,3.6,6.1,7.7,8,11.7c1.1,2.7,1.4,5.5,2.5,8.3c2.5,6.9,4.8,14.5,8.1,21c1.7,3.3,3.6,6.7,5.8,9.7
	c1.3,1.7,3.4,2.5,3.9,5.3c-2.2,3.1-2.4,7.8-3.6,11.7c-5.6,17.7-3.4,39.5,4.5,52.5c2.5,3.9,8.4,12.5,16.4,9.2
	c7-2.8,5.5-11.7,7.5-19.5c0.5-1.9,0.2-3.1,1.1-4.4v0.3c2.2,4.4,4.4,8.6,6.4,13c4.9,7.7,13.3,15.6,20.3,20.9
	c3.7,2.8,6.7,7.7,11.4,9.4v-0.5h-0.3c-1-1.4-2.3-2-3.6-3.1c-2.8-2.8-5.9-6.3-8.1-9.4c-6.6-8.8-12.4-18.5-17.5-28.5
	c-2.5-4.9-4.7-10.2-6.7-15c-0.9-1.9-0.9-4.7-2.5-5.6c-2.4,3.4-5.8,6.4-7.5,10.6c-3,6.7-3.3,15-4.4,23.6l-0.6,0.3
	c-5-1.3-6.7-6.4-8.6-10.8c-4.7-11.1-5.5-28.9-1.4-41.8c1.1-3.3,5.8-13.6,3.9-16.7c-0.9-3-4.1-4.7-5.8-7.1c-2-3-4.2-6.7-5.6-10
	c-3.7-8.8-5.6-18.4-9.7-27.2c-1.9-4.1-5.2-8.3-7.8-12c-3-4.2-6.3-7.2-8.6-12.2c-0.8-1.7-1.9-4.5-0.6-6.4c0.3-1.3,0.9-1.7,2.2-2
	c2-1.7,7.8,0.5,9.8,1.4c5.8,2.3,10.6,4.5,15.5,7.8c2.2,1.6,4.5,4.5,7.3,5.3h3.3c5,1.1,10.6,0.3,15.3,1.7c8.3,2.7,15.8,6.6,22.5,10.8
	c20.5,13,37.4,31.4,48.8,53.5c1.9,3.6,2.7,6.9,4.4,10.6c3.3,7.7,7.4,15.5,10.6,23c3.3,7.3,6.4,14.8,11.1,20.9c2.3,3.3,11.7,5,16,6.7
	c3.1,1.4,8,2.6,10.8,4.4c5.3,3.3,10.6,7,15.6,10.6C644.8,390.8,652.6,394.7,653.1,397.8 M493.6,262c-2.2,0-4.3,0.2-6.4,0.8v0.3h0.3
	c1.3,2.5,3.4,4.2,5,6.4c1.3,2.5,2.4,5,3.6,7.5l0.3-0.3c2.2-1.6,3.3-4.1,3.3-7.8c-1-1.1-1.1-2.2-1.9-3.3
	C496.9,264,494.9,263.2,493.6,262"/>
<path class="st3" d="M668,570.6h3.2v-15.9h-4.9l-4,10.8l-4.3-10.8h-4.7v15.9h3.1v-12.1h0.2l4.5,12.1h2.3l4.5-12.1L668,570.6
	L668,570.6z M641.9,570.6h3.4v-13.2h4.5v-2.7h-12.6v2.7h4.7L641.9,570.6L641.9,570.6z"/>
</svg>
