<?xml version="1.0" encoding="utf-8"?>
<!-- Generator: Adobe Illustrator 26.0.2, SVG Export Plug-In . SVG Version: 6.00 Build 0)  -->
<svg version="1.1" id="Layer_1" xmlns="http://www.w3.org/2000/svg" xmlns:xlink="http://www.w3.org/1999/xlink" x="0px" y="0px"
	 viewBox="0 0 800 800" style="enable-background:new 0 0 800 800;" xml:space="preserve">
<style type="text/css">
	.st0{fill:#FFFFFF;}
</style>
<path class="st0" d="M710,800H90c-49.7,0-90-40.3-90-90V90C0,40.3,40.3,0,90,0h620c49.7,0,90,40.3,90,90v620
	C800,759.7,759.7,800,710,800z"/>
<path d="M296.2,70.3H378V240h-81.7L296.2,70.3z M296.2,418.9H378v169.7h-81.7L296.2,418.9z M296.2,289.5H378v80.1h-81.7L296.2,289.5
	z M164.9,209.8h81.7v564.1h-81.7L164.9,209.8z M424.8,558.9h81.7v169.7h-81.7V558.9z M424.8,210h81.7v169.7h-81.7V210z M424.8,429.3
	h81.7v80.1h-81.7V429.3z M553.4,26.1h81.7v564.1h-81.7L553.4,26.1z"/>
</svg>
