<?xml version="1.0" encoding="utf-8"?>
<!-- Generator: Adobe Illustrator 26.0.2, SVG Export Plug-In . SVG Version: 6.00 Build 0)  -->
<svg version="1.1" id="Layer_1" xmlns="http://www.w3.org/2000/svg" xmlns:xlink="http://www.w3.org/1999/xlink" x="0px" y="0px"
	 viewBox="0 0 800 800" style="enable-background:new 0 0 800 800;" xml:space="preserve">
<style type="text/css">
	.st0{fill-rule:evenodd;clip-rule:evenodd;fill:#FFFFFF;}
	.st1{fill-rule:evenodd;clip-rule:evenodd;fill:url(#SVGID_1_);}
	.st2{fill-rule:evenodd;clip-rule:evenodd;fill:url(#SVGID_00000147185078165196995940000010851070203995372686_);}
</style>
<path class="st0" d="M683.1,799.1H116.9c-49.7,0-90-40.3-90-90V90.9c0-49.7,40.3-90,90-90h566.2c49.7,0,90,40.3,90,90v618.1
	C773.1,758.8,732.8,799.1,683.1,799.1z"/>
<linearGradient id="SVGID_1_" gradientUnits="userSpaceOnUse" x1="-524.1592" y1="558" x2="-524.1592" y2="537.2593" gradientTransform="matrix(25 0 0 -25 13416 14000)">
	<stop  offset="0" style="stop-color:#327EBD"/>
	<stop  offset="1" style="stop-color:#1565A7"/>
</linearGradient>
<path class="st1" d="M325.4,50c-54.9,0-99.5,43.1-99.5,96.3V213h172.1v18.5H149.5c-54.9,0-99.5,43.1-99.5,96.3v144.4
	c0,53.2,44.5,96.3,99.5,96.3h57.4V487c0-53.2,44.5-96.3,99.5-96.3h183.6c46.5,0,84.2-36.5,84.2-81.5v-163
	c0-53.2-44.5-96.3-99.5-96.3H325.4z M302.5,168.5c19,0,34.4-14.9,34.4-33.3c0-18.4-15.4-33.3-34.4-33.3c-19,0-34.4,14.9-34.4,33.3
	C268,153.6,283.4,168.5,302.5,168.5z"/>
<linearGradient id="SVGID_00000179615854494325242210000015584875565605963915_" gradientUnits="userSpaceOnUse" x1="-517.121" y1="550.7407" x2="-517.121" y2="530" gradientTransform="matrix(25 0 0 -25 13416 14000)">
	<stop  offset="0" style="stop-color:#FFDA4B"/>
	<stop  offset="1" style="stop-color:#F9C600"/>
</linearGradient>
<path style="fill-rule:evenodd;clip-rule:evenodd;fill:url(#SVGID_00000179615854494325242210000015584875565605963915_);" d="
	M474.6,750c54.9,0,99.5-43.1,99.5-96.3V587H401.9v-18.5h248.6c54.9,0,99.5-43.1,99.5-96.3V327.8c0-53.2-44.5-96.3-99.5-96.3h-57.4
	V313c0,53.2-44.5,96.3-99.5,96.3H310.1c-46.5,0-84.2,36.5-84.2,81.5v163c0,53.2,44.5,96.3,99.5,96.3H474.6z M497.5,631.5
	c-19,0-34.4,14.9-34.4,33.3s15.4,33.3,34.4,33.3c19,0,34.4-14.9,34.4-33.3S516.5,631.5,497.5,631.5z"/>
</svg>
