<?xml version="1.0" encoding="utf-8"?>
<!-- Generator: Adobe Illustrator 26.0.2, SVG Export Plug-In . SVG Version: 6.00 Build 0)  -->
<svg version="1.1" id="Layer_1" xmlns="http://www.w3.org/2000/svg" xmlns:xlink="http://www.w3.org/1999/xlink" x="0px" y="0px"
	 viewBox="0 0 800 800" style="enable-background:new 0 0 800 800;" xml:space="preserve">
<style type="text/css">
	.st0{fill:#FFFFFF;}
	.st1{fill:#F2983C;}
	.st2{fill:#339ACE;}
</style>
<path class="st0" d="M709.1,799.1H90.9c-49.7,0-90-40.3-90-90V90.9c0-49.7,40.3-90,90-90h618.1c49.7,0,90,40.3,90,90v618.1
	C799.1,758.8,758.8,799.1,709.1,799.1z"/>
<g>
	<path d="M417.7,566.1c71.6,7,121.7,11.9,172-21c70.4-46,81.9-127.4,84-142c7.4-52.3-5.8-106.5-17-107c-8.4-0.4-6.1,30-28,55
		c-30.6,34.9-86.6,34.5-162,33c-88.8-1.7-105.5-16-129,1c-40.1,29-49.3,112.7-12,153C344.7,558.5,369.7,561.4,417.7,566.1z"/>
	<path class="st1" d="M618.2,521.4l-0.1,0.2c0,0,0,0,0,0C618.1,521.5,618.1,521.4,618.2,521.4C618.2,521.4,618.2,521.4,618.2,521.4z
		"/>
	<polygon class="st0" points="511.1,386.8 506,386.8 505.9,419.4 511.1,419.4 	"/>
	<path class="st0" d="M566.1,415.7C566.1,415.7,566.1,415.7,566.1,415.7c0,0.1,0,0.2,0,0.3c0,1.4,0.6,2.7,1.6,3.5l0,0
		c1.2,0.9,2.7,1.4,4.2,1.4c0.2,0,0.3,0,0.5,0h0c1.5,0,3-0.2,4.2-0.4V416l0,0c-0.7,0.2-1.4,0.3-2.2,0.3c-0.1,0-0.2,0-0.3,0
		c-0.2,0.1-0.4,0.1-0.6,0.1c-1.3,0-2.4-1.1-2.4-2.4c0-0.2,0-0.4,0.1-0.6V391h5.4v-4.2h-5.4v-9h-5.2v9h-4.4v4.2h4.4V415.7z"/>
	<path class="st0" d="M474.4,412.9c1.1,2.4,2.8,4.4,5,5.9l-0.1,0c2.2,1.3,4.7,2.1,7.4,2.1c0.1,0,0.2,0,0.3,0c0,0,0,0,0,0
		c0.1,0,0.2,0,0.3,0c2.3,0,4.5-0.5,6.4-1.5l0,0c1.9-0.9,3.4-2.4,4.5-4.2c1.2-2,1.9-4.4,2.1-6.9h-5.2c-0.9,5.3-3.6,7.9-8,7.9
		c-0.1,0-0.1,0-0.2,0c-1.8,0-3.4-0.5-4.7-1.5l0,0c-1.4-1-2.4-2.4-3.1-4.1c0,0,0,0,0,0.1l0-0.1c0,0,0,0,0,0.1c-0.7-2-1.1-4.1-1.1-6.3
		c0-0.2,0-0.3,0-0.4c0,0,0,0,0,0c0-0.2,0-0.3,0-0.4c0-2.4,0.4-4.6,1.1-6.6l0-0.1c0.6-1.7,1.7-3.3,3.1-4.4l0,0c1.3-1,2.9-1.6,4.7-1.6
		c0,0,0.1,0,0.2,0c0,0,0,0,0,0c0.1,0,0.2,0,0.3,0c1.9,0,3.7,0.7,5,1.9c1.4,1.4,2.3,3.2,2.4,5.2h5.2v0c-0.1-1.4-0.4-2.7-0.7-3.9
		l0-0.1c-1-2.9-3-5.2-5.8-6.5l0.1,0c-1.8-0.9-4-1.4-6.2-1.4c-0.1,0-0.2,0-0.2,0l0.1-0.1c0,0-0.1,0-0.2,0c-2.1,0-4.1,0.5-5.8,1.2
		l-0.1,0c-1.8,0.8-3.4,2.1-4.6,3.6l0,0c-1.3,1.6-2.3,3.5-3,5.7c-0.7,2.2-1,4.5-1,6.9c0,0.1,0,0.3,0,0.4c0,0,0,0,0,0
		c0,0.2,0,0.3,0,0.5C472.6,407.2,473.3,410.2,474.4,412.9L474.4,412.9z"/>
	<path class="st0" d="M444.9,418c2.4,1.8,5.4,2.8,8.7,2.8c0.3,0,0.7,0,1,0c0,0,0,0,0,0c0,0,0,0,0,0c0.1,0,0.2,0,0.3,0
		c2.4,0,4.7-0.5,6.7-1.3l0.1,0c1.9-0.7,3.5-2,4.7-3.6l0,0c1-1.5,1.6-3.3,1.6-5.3c0-0.1,0-0.1,0-0.2c0,0,0,0,0,0c0-0.1,0-0.3,0-0.4
		c0-2.1-0.8-4-2.2-5.4c-1.9-1.6-4.3-2.8-7-3.3l-5-1.2h-0.1c-1.7-0.3-3.3-1-4.6-1.9c-0.8-0.6-1.4-1.6-1.4-2.7v0c0,0,0-0.1,0-0.2
		c0-1.5,0.7-2.8,1.9-3.5l0,0c1.3-0.9,2.9-1.3,4.7-1.3c0.2,0,0.3,0,0.5,0c4.1,0,6.3,1.8,6.5,5.2h5.5c0-0.1,0-0.2,0-0.2
		c0-1.9-0.5-3.7-1.4-5.1l0,0c-0.9-1.5-2.3-2.6-4-3.4c-1.9-0.8-3.9-1.2-6.1-1.2c-0.2,0-0.4,0-0.5,0l0.1,0h0c-0.3,0-0.5,0-0.8,0
		c-3.1,0-6,1-8.3,2.7l0,0c-2.1,1.6-3.4,4.1-3.4,7c0,0.1,0,0.2,0,0.3c0,0,0,0,0,0c0,0.1,0,0.2,0,0.2c0,1.1,0.2,2.2,0.5,3.1l0,0.1
		c0.4,1,1,1.8,1.8,2.5c0.9,0.8,1.9,1.4,3.1,1.9l-0.3-0.1c1.6,0.6,3.2,1.2,5.2,1.6l4.9,1.2h0.1c1.4,0.2,2.8,0.8,3.8,1.7
		c0.7,0.7,1.2,1.6,1.2,2.7c0,0,0,0.1,0,0.1c0,1.6-0.8,3-2.1,3.7l0.1,0c-1.5,0.9-3.2,1.5-5.1,1.5c-0.1,0-0.3,0-0.5,0
		c-0.2,0-0.5,0-0.8,0c-2.2,0-4.1-0.8-5.7-2c-0.4-0.5-0.8-1-1.1-1.7c0,0,0,0,0,0.1l0-0.1c0,0,0,0,0,0c-0.3-0.8-0.5-1.7-0.5-2.6h-5.5
		c0,0.1,0,0.3,0,0.5C441.6,413.2,442.9,416.1,444.9,418L444.9,418z"/>
	<polygon class="st0" points="524.5,419.4 524.5,406.6 529.6,401.4 540.8,419.4 547,419.4 533.6,398 545,386.7 538.9,386.7 
		524.5,401 524.5,373.9 519.3,373.9 519.3,419.4 	"/>
	<rect x="551" y="386.8" class="st0" width="5.2" height="32.7"/>
	<rect x="551" y="373.9" class="st0" width="5.2" height="6.5"/>
	<polygon class="st0" points="511.1,373.9 506,373.9 505.9,380.5 511.1,380.5 	"/>
	<path class="st1" d="M492.2,485.2C492.2,485.2,492.3,485.1,492.2,485.2c0.1-0.1,0.1-0.2,0.2-0.2L492.2,485.2z"/>
	<path class="st1" d="M633.7,486.5c-0.1,0.1-0.1,0.2-0.2,0.3c0,0,0,0,0,0L633.7,486.5z"/>
	<path class="st1" d="M714,452.1c-0.2,0.5-0.4,1.1-0.6,1.6l0.1,0L714,452.1z"/>
	<polygon class="st1" points="512.2,197.9 512.2,197.9 512.2,197.9 	"/>
	<path class="st1" d="M367.6,522.8C367.6,522.8,367.6,522.8,367.6,522.8c0-0.1-0.1-0.1-0.1-0.1L367.6,522.8z"/>
	<path class="st2" d="M224.2,409.2c-26-27-61.8-44.4-101.7-46.4l-0.3,0h0c-1.3,0-2.8-0.1-4.3-0.1c-25.8,0-49.1,10.2-66.3,26.8
		c-16.2,20.8-26,47.4-26,76.2c0,38.8,17.8,73.4,45.5,96.3l0.2,0.2c27.3,22.8,62.8,36.6,101.4,36.6c26,0,50.5-6.2,72.1-17.2l-0.9,0.4
		c9.8-20.6,15.5-44.8,15.5-70.2C259.4,473,246.3,437.4,224.2,409.2z"/>
	<path class="st1" d="M51.5,389.5C51.5,389.4,51.5,389.4,51.5,389.5C51.5,389.4,51.5,389.4,51.5,389.5L51.5,389.5z"/>
	<path class="st1" d="M223.9,408.8c0.1,0.1,0.2,0.2,0.2,0.3c0,0,0,0,0,0L223.9,408.8z"/>
	<path class="st1" d="M617.8,521.8c0.1-0.1,0.2-0.2,0.2-0.3c0,0,0,0,0,0L617.8,521.8z"/>
	<path class="st1" d="M633.7,243.7c0.1,0.1,0.1,0.1,0.2,0.2c0,0,0,0,0,0L633.7,243.7z"/>
	<path class="st1" d="M388.3,523.8C388.3,523.8,388.3,523.9,388.3,523.8C388.3,523.9,388.3,523.9,388.3,523.8L388.3,523.8z"/>
	<path class="st1" d="M604.4,462.8C604.3,462.9,604.3,462.9,604.4,462.8c-0.1,0.1-0.1,0.1-0.1,0.1L604.4,462.8z"/>
	<path class="st1" d="M622.5,481.2c0.1-0.1,0.1-0.3,0.2-0.4c0,0,0,0,0,0L622.5,481.2z"/>
	<path class="st1" d="M498.4,415C498.4,415.1,498.4,415.1,498.4,415C498.4,415.1,498.4,415.1,498.4,415L498.4,415z"/>
	<path class="st1" d="M436.9,472.8c-4,7.2-6.3,15.7-6.3,24.8c0,0.8,0,1.6,0,2.3v-0.1c17.7-5,26.5-14.1,26.5-27.5
		c0-6.6-2.4-9.9-7.2-9.9v0C445.4,462.4,441,465.8,436.9,472.8z"/>
	<path class="st1" d="M519.6,524.8C519.7,524.8,519.7,524.8,519.6,524.8c7,0,13.5-5.9,19.6-17.6c5.4-9.4,8.8-20.6,9.2-32.5v-0.1
		c0-0.2,0-0.5,0-0.8c0-3.1-1-6-2.7-8.3l0,0c-1.6-2-4-3.2-6.7-3.2c-0.1,0-0.2,0-0.3,0c0,0,0,0,0,0c0,0,0,0,0,0v0
		c-6.9,0-13.4,5.9-19.6,17.6c-5.4,9.3-8.8,20.4-9.3,32.3v0.1c0,0.2,0,0.5,0,0.7c0,3.2,1,6.1,2.8,8.4l0,0
		C514.3,523.4,516.8,524.8,519.6,524.8z"/>
	<path d="M750,527.2c-3.4,0-5.1-2.1-5.1-6.2c1.2-7.6,3.3-14.4,6.3-20.8l-0.2,0.5c4.5-9.5,7.6-20.6,8.9-32.3l0.1-0.5
		c0-0.2,0-0.3,0-0.5c0-3.6-1.3-6.9-3.5-9.5l0,0c-2.1-2.4-5.2-4-8.6-4c-0.1,0-0.2,0-0.2,0c-6.8,0.5-12.9,3.2-17.7,7.3l0-0.1
		c-9.9,8-18.8,16.6-26.7,26l-0.2,0.3c2.9-12.6,6.3-23.4,10.4-33.7l-25.2,4.9c-4.6,9.4-8.8,20.6-12.1,32.1l-0.3,1.5
		c-1.1,4.1-2.1,9.2-2.8,14.3l-0.1,0.7c-4.9,4.9-10,9.6-15.3,14c-1.9,1.5-4.4,2.5-7.2,2.5c-0.1,0-0.2,0-0.2,0c-2.1,0-4-1-5.2-2.5v0
		c-1.2-1.8-2-4-2-6.4c0-0.2,0-0.4,0-0.6v0c0.1-3.8,0.7-7.5,1.8-11l-0.1,0.3c1.2-4,3.8-11.6,7.8-22.8l9.6-26.5l-2.3,0.1
		c-11.3,25.5-25.1,47.5-41.6,67.2c0,0,0,0,0,0c0,0,0,0,0,0c-0.2,1.4-0.3,2.9-0.4,4.6v0c0,0.2,0,0.4,0,0.6c0,4.8,1.7,9.1,4.4,12.6
		l0-0.1c2.4,3.2,6.3,5.3,10.6,5.3c0,0,0,0,0,0c9.2,0,22.3-8.2,39.2-24.6c0,1.2-0.1,2.5-0.1,3.8c0,4.6,0.4,11.5,1.1,20.8l22.9-5.4
		c0-6.2,0.1-11.1,0.3-14.8c0.5-6.1,1.2-11.7,2.2-17.1l-0.2,0.9c0.8-3.8,2.4-7.1,4.8-9.9l0,0l5.8-6.8c3.8-4.4,7.7-8.5,11.7-12.3
		l0.1-0.1c1.5-1.4,3.2-2.7,4.9-4l0.2-0.1c1.1-0.8,2.4-1.3,3.8-1.4h0c1.7,0,2.6,1.1,2.6,3.3c-1,5.8-2.7,11-5,15.9l0.1-0.4
		c-4.7,9.9-7.9,21.3-9.1,33.4l0,0.4c0,0.3,0,0.6,0,1c0,4.6,1.6,8.8,4.3,12.1l0,0c2.6,3,6.4,4.9,10.6,4.9c0.2,0,0.4,0,0.6,0
		c16.9-3,31.3-12.2,40.9-25.1l0.1-0.2v-11.9C763.3,520.5,755.1,527.2,750,527.2z"/>
	<path class="st1" d="M618.2,521.4C618.2,521.4,618.2,521.4,618.2,521.4C618.2,521.4,618.2,521.4,618.2,521.4
		C618.2,521.4,618.2,521.4,618.2,521.4C618.2,521.4,618.2,521.4,618.2,521.4z"/>
	<polygon class="st1" points="393.3,406.1 393.3,406.1 393.3,406.1 	"/>
	<path class="st1" d="M382.2,425.2c-5.5,14.8-10.4,32.7-14,51.1l-0.4,2.3c8.5-9.4,15.7-20.2,21-32l0.3-0.8c4.7-9.1,7.6-19.8,8.2-31
		v-0.2c0-0.2,0-0.4,0-0.6c0-2-0.4-3.9-1.2-5.7l0,0.1c-0.8-1.6-1.7-2.3-2.9-2.3C390.8,406.1,387,412.4,382.2,425.2z"/>
	<path class="st1" d="M618.1,521.5c0,0,0.1-0.1,0.1-0.1c0,0,0,0,0,0C618.1,521.4,618.1,521.5,618.1,521.5z"/>
	<path class="st1" d="M465.9,404.7C465.9,404.7,465.9,404.7,465.9,404.7C465.9,404.7,465.9,404.7,465.9,404.7L465.9,404.7z"/>
	<path class="st0" d="M461.3,387C461.3,387,461.3,387,461.3,387C461.4,387,461.4,387,461.3,387L461.3,387z"/>
	<path class="st0" d="M473.6,396.3C473.6,396.3,473.6,396.3,473.6,396.3c0-0.1,0-0.1,0.1-0.2L473.6,396.3z"/>
	<path class="st1" d="M479.2,410.4C479.2,410.4,479.2,410.4,479.2,410.4c0-0.1,0-0.1,0-0.1L479.2,410.4z"/>
	<path class="st1" d="M618.2,521.4C618.2,521.4,618.2,521.4,618.2,521.4c2.9-13.1,8.2-24.5,15.3-34.6c-4.8,2.5-10.5,4.4-16.4,5.4
		l-0.3,0.1c-6,10.2-13,19-21.1,26.7l-0.1,0c-7.2,7.2-15,13.9-23.2,20.1l-0.6,0.4c-3.8,2.8-8.5,4.5-13.6,4.8h0
		c-10.9,0-16.1-9.6-15.4-28.9c-5.5,8.3-11.8,15.5-19,21.8l-0.1,0.1c-4.8,4.2-11.1,6.8-18,7h0c-6.5-0.1-12.1-3.4-15.4-8.4l-0.1-0.1
		c-3.2-4.4-5.4-9.8-6-15.7v-0.1c-6.7,6.8-14.1,12.8-22.2,17.9l-0.5,0.3c-6.5,3.9-14.3,6.1-22.6,6.1c-0.2,0-0.3,0-0.5,0
		c-0.4,0-0.8,0-1.2,0c-8.4,0-16-3.5-21.5-9c-4.2-4.3-7-10-8-16.2l0-0.2v0.1c-7.3,7-15.4,13.3-24.1,18.7l-0.6,0.4
		c-5.8,3.6-12.7,5.9-20.2,6.2h0c-0.2,0-0.4,0-0.6,0c-7,0-13.3-3.4-17.2-8.6l0,0c-4.3-5.9-6.9-13.3-6.9-21.2c0-0.6,0-1.3,0-2v0.1
		c0.6-18.9,4-36.7,9.8-53.5l-0.4,1.3c6.6-21.7,14.4-40.3,23.8-57.9l-0.9,1.8l26.3-9.8c0.6-0.2,1.2-0.4,1.9-0.4h0
		c2,0,3.6,1.5,4.9,4.4c1.2,3.2,1.9,6.9,1.9,10.8c0,0.4,0,0.8,0,1.2v-0.1c0,14.9-3.6,29-10,41.5l0.2-0.5c-8.5,16.1-18.7,30-30.5,42.3
		l0-0.1c-0.6,7.2-0.8,12.1-0.8,14.8c0,0.4,0,0.8,0,1.3c0,4.8,1.2,9.2,3.4,13.1c1.7,3.1,5,5.2,8.7,5.2c4.5-0.2,8.5-1.7,11.9-4.1
		c7-5.1,13.1-10.4,18.8-16.3l0,0c1-13.8,6.5-26.2,15.1-35.7l-0.1,0c7.8-10.4,19.9-17.2,33.7-17.8h0.1c0.3,0,0.7,0,1.1,0
		c5.5,0,10.4,1.9,14.4,5l-0.1,0c3.6,3,5.8,7.5,5.8,12.5c0,0.2,0,0.3,0,0.5c0,0,0,0,0,0c0,0,0,0,0,0c0,14.3-15.2,25.9-45.6,34.8
		c2.8,13.4,10,20.2,21.7,20.2c4.8,0,9.3-1.4,13.1-3.7l-0.1,0.1c6.7-4.7,12.6-9.8,17.9-15.5l0-0.1c1.1-8.5,3.9-16.1,8.1-22.8
		c0,0,0,0,0,0l0.2-0.2c0,0.1-0.1,0.1-0.1,0.2c5.6-9.2,12.9-16.8,21.6-22.6l0.2-0.2c6.5-4.9,14.7-8.1,23.5-8.7h0.2c0.3,0,0.6,0,0.9,0
		c7.8,0,14.5,4.9,17.1,11.8l0.1,0.1l21.2-11.7h5.8l-9.1,30.3c-3.4,9.1-5.9,19.8-7,30.8l-0.1,0.6c0,5.9,2.1,8.9,6.3,8.9
		c3.5-0.3,6.6-1.9,8.9-4.3c3.2-2.9,7.8-7.2,13.6-13.1v0c4.3-4.6,8.3-9.7,12-15l0.3-0.5c-5.1-1.6-8.8-6.2-8.9-11.7v0
		c0.2-6.3,2.2-12.2,5.5-17.1c2.8-5.4,8.4-9,14.8-9c0.1,0,0.1,0,0.2,0c0.3,0,0.6,0,0.9,0c4,0,7.2,3.2,7.2,7.2c0,0.4,0,0.8-0.1,1.1v0
		c-0.5,6.7-2.1,12.9-4.6,18.6c11.5-1.3,21.5-10,30-26.3l7.1-0.3c13.2-25,21-54.7,21-86.2c0-47.6-17.7-91-46.9-124.1
		c-29.5-28.5-69.7-46.1-114.1-46.1c-2.7,0-5.3,0.1-8,0.2l0.4,0c-69.3,3.4-131.1,33.4-175.8,79.9l-0.1,0.1
		c-91.5,91.5-65.1,266.5-34,297.6c25.2,25.1,206,57.6,297.6-34c6.3-6.4,12.4-13,18.1-19.9L618.2,521.4
		C618.2,521.4,618.2,521.4,618.2,521.4z M561.7,386.8h4.4v-9h5.2v9h5.4v4.2h-5.4v22.4c-0.1,0.2-0.1,0.4-0.1,0.6
		c0,1.3,1.1,2.4,2.4,2.4c0.2,0,0.4,0,0.6-0.1h0h0c0.1,0,0.2,0,0.3,0c0.8,0,1.5-0.1,2.2-0.3l0,0v4.4c-1.3,0.3-2.7,0.4-4.2,0.4h0
		c-0.2,0-0.3,0-0.5,0c-1.6,0-3.1-0.5-4.2-1.4l0,0c-1-0.9-1.6-2.1-1.6-3.5c0-0.1,0-0.2,0-0.3c0,0,0,0,0,0V391h-4.4V386.8z M551,373.9
		h5.2v6.5H551V373.9z M551,386.8h5.2v32.7H551V386.8z M524.5,373.9v27l14.4-14.2h6.1L533.6,398l13.4,21.4h-6.2l-11.1-18l-5.1,5.2
		v12.8h-5.2l0-45.5H524.5z M506,373.9h5.2v6.5h-5.2L506,373.9z M506,386.8h5.2v32.7h-5.2L506,386.8z M472.6,403.6
		C472.6,403.6,472.6,403.6,472.6,403.6c0-0.1,0-0.3,0-0.4c0-2.4,0.4-4.8,1-6.9c0,0,0,0,0,0l0.1-0.2c0,0,0,0.1,0,0.1
		c0.7-2.2,1.7-4,3-5.7l0,0c1.2-1.5,2.8-2.8,4.6-3.6l0.1,0c1.7-0.8,3.7-1.2,5.8-1.2c0.1,0,0.1,0,0.2,0l-0.1,0.1c0.1,0,0.2,0,0.2,0
		c2.2,0,4.3,0.5,6.2,1.4l-0.1,0c2.8,1.3,4.9,3.7,5.8,6.5l0,0.1c0.3,1.2,0.6,2.5,0.7,3.9v0h-5.2c-0.2-2.1-1.1-3.9-2.4-5.2
		c-1.3-1.2-3.1-1.9-5-1.9c-0.1,0-0.2,0-0.3,0c0,0,0,0,0,0c0,0-0.1,0-0.2,0c-1.8,0-3.4,0.6-4.7,1.6l0,0c-1.4,1.2-2.5,2.7-3.1,4.4
		l0,0.1c-0.7,2-1.1,4.2-1.1,6.6c0,0.1,0,0.3,0,0.4c0,0,0,0,0,0c0,0.1,0,0.3,0,0.4c0,2.2,0.4,4.3,1.1,6.3c0.7,1.7,1.7,3.1,3.1,4.1
		l0,0c1.3,1,3,1.5,4.7,1.5c0.1,0,0.1,0,0.2,0c4.4,0,7.1-2.6,8-7.9h5.2c-0.2,2.5-0.9,4.9-2.1,6.9c0,0,0,0,0-0.1l0,0.1c0,0,0,0,0,0
		c-1.1,1.8-2.6,3.3-4.5,4.2l0,0c-1.9,1-4.1,1.5-6.4,1.5c-0.1,0-0.2,0-0.3,0c0,0,0,0,0,0c-0.1,0-0.2,0-0.3,0c-2.7,0-5.2-0.8-7.4-2.1
		l0.1,0c-2.2-1.5-3.9-3.5-5-5.9l0-0.1c-1.1-2.5-1.8-5.5-1.8-8.7C472.6,403.9,472.6,403.8,472.6,403.6z M441.6,409.7
		C441.6,409.6,441.6,409.6,441.6,409.7C441.6,409.6,441.6,409.6,441.6,409.7h5.5c0.1,1,0.3,1.8,0.5,2.6c0.2,0.6,0.6,1.2,1.1,1.7
		c1.5,1.3,3.5,2,5.7,2c0.2,0,0.5,0,0.8,0h0h0c0.1,0,0.3,0,0.5,0c1.9,0,3.6-0.5,5.1-1.5l-0.1,0c1.3-0.8,2.1-2.1,2.1-3.7
		c0-0.1,0-0.1,0-0.1c0-1.1-0.4-2-1.2-2.7c-1.1-0.9-2.4-1.5-3.8-1.7h-0.1l-4.9-1.2c-2-0.5-3.6-1-5.2-1.6l0.3,0.1
		c-1.2-0.5-2.2-1.2-3.1-1.9c-0.8-0.7-1.4-1.6-1.8-2.5l0-0.1c-0.3-0.9-0.5-2-0.5-3.1c0-0.1,0-0.2,0-0.2c0,0,0,0,0,0
		c0-0.1,0-0.2,0-0.3c0-2.8,1.3-5.3,3.4-7l0,0c2.3-1.7,5.2-2.7,8.3-2.7c0.2,0,0.5,0,0.8,0h0l-0.1,0c0.2,0,0.3,0,0.5,0
		c2.1,0,4.2,0.4,6.1,1.2c0,0-0.1,0-0.1,0l0.1,0c0,0,0,0,0,0c1.7,0.7,3,1.9,4,3.4l0,0c0.9,1.5,1.4,3.2,1.4,5.1c0,0.1,0,0.2,0,0.2
		c0,0,0,0,0,0c0,0,0,0,0,0h-5.5c-0.2-3.5-2.4-5.2-6.5-5.2c-0.2,0-0.3,0-0.5,0c-1.7,0-3.3,0.5-4.7,1.3l0,0c-1.1,0.8-1.9,2-1.9,3.5
		c0,0,0,0.1,0,0.2v0c0,1.1,0.5,2.1,1.4,2.7c1.3,0.9,2.9,1.6,4.6,1.9h0.1l5,1.2c2.7,0.5,5.1,1.6,7,3.3c0,0,0,0,0,0l0,0c0,0,0,0,0,0
		c1.3,1.4,2.2,3.3,2.2,5.4c0,0.1,0,0.3,0,0.4c0,0,0,0,0,0c0,0,0,0.1,0,0.2c0,2-0.6,3.8-1.6,5.3l0,0c-1.2,1.6-2.8,2.9-4.7,3.6l-0.1,0
		c-2,0.8-4.3,1.3-6.7,1.3c-0.1,0-0.2,0-0.3,0c-0.3,0-0.7,0-1,0c-3.2,0-6.2-1-8.7-2.8l0,0c-2.1-2-3.4-4.8-3.4-8
		C441.6,410,441.6,409.8,441.6,409.7z"/>
	<path class="st1" d="M447.6,412.4C447.6,412.3,447.6,412.3,447.6,412.4C447.6,412.3,447.6,412.3,447.6,412.4L447.6,412.4z"/>
</g>
</svg>
