<?xml version="1.0" encoding="utf-8"?>
<!-- Generator: Adobe Illustrator 26.0.2, SVG Export Plug-In . SVG Version: 6.00 Build 0)  -->
<svg version="1.1" id="Layer_1" xmlns="http://www.w3.org/2000/svg" xmlns:xlink="http://www.w3.org/1999/xlink" x="0px" y="0px"
	 viewBox="0 0 800 800" style="enable-background:new 0 0 800 800;" xml:space="preserve">
<style type="text/css">
	.st0{fill:#FFFFFF;}
</style>
<path class="st0" d="M707.2,797.2H92.8c-49.7,0-90-40.3-90-90V92.8c0-49.7,40.3-90,90-90h614.4c49.7,0,90,40.3,90,90v614.4
	C797.2,756.9,756.9,797.2,707.2,797.2z"/>
<g>
	<path d="M627.4,391.2c12.5,3.2,24.9,6.5,41.2,10.7c-8-15.4-14-28.5-21.4-40.8c-4.6-7.6-3.7-12.4,2.1-18.7
		c10.8-11.7,20.8-24.3,31.1-36.5c-0.5-1-1-2-1.5-3c-12.7,3.3-25.7,5.6-38,10.1c-12.9,4.7-21,2.9-27-10.5
		c-4.7-10.7-12-20.2-20.4-33.7c-3.2,16.5-6.6,29.3-7.8,42.4c-1.2,13.5-6.6,21-20.5,23.8c-13.1,2.7-25.7,8-42.4,13.4
		c16.4,7,29.5,12.6,44.3,19c-9,5.9-16.6,11-24.4,15.8c-2,1.2-5.3,2.4-7,1.6c-14.5-6.8-29.9-12.4-42.8-21.5
		c-12.2-8.6-9.1-24.3,5.4-30.2c17.2-7,35-12.5,52.9-17.7c8.2-2.4,11.7-6.4,12.7-14.8c1.8-13.8,4.6-27.5,7.4-41.2
		c0.9-4.5,2.2-9.1,4.3-13.2c8.3-16.3,22.1-17.4,32.4-2.4c7.7,11.2,15,22.7,21.1,34.7c5.1,9.9,11,11.8,21.3,8.4
		c15.6-5.1,31.6-9.6,47.8-12.4c6.9-1.2,14.6,2.7,22,4.3c-2,7.3-2.1,16-6.3,21.7c-11,15-23.6,28.9-36,42.8
		c-5.2,5.9-6.4,10.6-2.1,17.8c7.8,13.1,15.4,26.5,21,40.6c2.6,6.6,3,17.1-0.6,22.1c-3.7,4.9-14.1,7.8-20.9,6.8
		c-13.7-2-28.2-4.9-39.8-11.9c-6.5-3.9-7.7-16.6-11.3-25.3C625.3,392.7,626.4,391.9,627.4,391.2L627.4,391.2z"/>
	<path d="M214.4,523.8c-2.1,14.6-4.1,28.4-6.2,43c-8.6,0-16.8,0-26.5,0c2.7-22,5.3-43.2,8-64.4c1.4-10.9,2.8-21.8,4.5-32.7
		c5.1-32.1,31.8-57.9,62.7-61c46.5-4.5,76.3,36.4,57.8,79.3C297.7,528,257.2,542.8,214.4,523.8L214.4,523.8z M291.7,466.6
		C291.8,449,279,436,261.4,436c-21.2,0-40,18.6-39.9,39.7c0.1,17.3,13.3,30.1,31,30.1C273,505.7,291.4,487.1,291.7,466.6
		L291.7,466.6z"/>
	<path d="M79.8,499.1c9.5-5.1,18.4-9.8,28-15c2.7,4.5,4.8,8.5,7.5,12.2c7.6,10.4,19.6,11.6,30,3.4c9.6-7.6,10.2-15,1-26.1
		c-7.8-9.4-16.2-18.4-24.7-27.4c-12.8-13.6-20.2-28.9-12.4-47.2c8.4-19.9,24-31.2,45.8-33.5c20.7-2.2,34.8,7.5,45.6,25.8
		c-8.5,6.5-17.1,13-25.6,19.5c-4.3-4.6-7.5-11-11.9-12c-6.9-1.6-16.1-1.9-21.8,1.5c-8.3,5.1-3.1,12.5,2,18.2
		c8,8.8,15.8,17.8,24.2,26c14.3,14,20.4,30.3,14,49.6c-7,20.9-21.8,34.2-43.5,38.6C107.4,539,89.6,528.8,79.8,499.1L79.8,499.1z"/>
	<path d="M447.8,529.6c-10,0-18,0-27.3,0c2.4-18.3,5.1-35.7,6.8-53.3c1.4-14.5-0.9-28.3-14.6-36.8c-11.1-6.9-28.6-4.4-40.4,5.7
		c-11.7,10-17.9,22.6-13.7,38.4c5.3,20.2,27.1,28.1,47.2,17.4c3.6-2,7.1-4.3,11.7-7.2c-0.8,5.9-1.6,10.4-2.2,15
		c-2.6,20.2-6,23.3-25.9,24.2c-43.1,2-69.9-32.8-57.1-74c9.9-31.7,40.9-52.8,74.1-50.4c27.7,2,49.7,24.4,48.6,52.2
		C454.3,483.4,450.5,506.1,447.8,529.6L447.8,529.6z"/>
	<path d="M568.2,439.8c17.4-19,32.1-35.2,47.3-51.9c6.7,17.2,8.4,31.7-7.8,43.8c-7.3,5.4-12.8,13.3-19.5,20.4
		c18.3,25.7,36.1,50.9,55.6,78.3c-12.4,0-22.7,0.6-32.8-0.4c-3.2-0.3-6.7-4.5-8.9-7.7c-11.9-17.4-23.3-35.1-37.2-56
		c-2.6,18.4-6,33.1-6.5,47.9c-0.4,13.5-5.7,18-18.4,16c-4-0.6-8.2-0.4-13.8-0.7c3.4-26.9,6.6-52.8,10-78.7c2-15.5,5.1-31,6.1-46.6
		c0.6-10.1,4.5-16.5,13.2-21.1c6.6-3.5,12.8-8,21.4-13.4C573.9,393.5,571.3,415.1,568.2,439.8L568.2,439.8z"/>
	<path d="M525.4,438.8c-5,0-8.4,0.2-11.7,0c-9.9-0.6-14.8,4.2-16,13.8c-2.7,21.4-6.6,42.7-8.2,64.1c-0.8,11.2-4.7,15.1-15.4,13.5
		c-4.1-0.6-8.3-0.1-14.2-0.1c2.6-20.8,4.9-40.4,7.4-59.9c1-8,2.1-15.9,3.5-23.8c4-23.7,17.6-35,41.8-35.1c4.2,0,8.5,0.1,12.7,0.3
		c0.8,0,1.5,0.7,3,1.3C527.5,420.9,526.6,429.2,525.4,438.8L525.4,438.8z"/>
	<path class="st0" d="M291.7,466.6c-0.2,20.6-18.7,39.1-39.1,39.2c-17.7,0.1-30.9-12.8-31-30.1c-0.1-21.1,18.6-39.7,39.9-39.7
		C279,436,291.8,449,291.7,466.6L291.7,466.6z"/>
</g>
</svg>
